{"title":"Frankenweenie[2012]BRrip[Ac3-5.1]-=[CaLvIn]=-","uid":7971426,"size":748334234,"categoryP":"video","categoryS":"movies","magnet":"?xt=urn:btih:46e4d325d1448cc1845f3770b559bc6aa6c7cdae&amp;dn=Frankenweenie%5B2012%5DBRrip%5BAc3-5.1%5D-%3D%5BCaLvIn%5D%3D-&amp;tr=udp%3A%2F%2Ftracker.openbittorrent.com%3A80&amp;tr=udp%3A%2F%2Fopen.demonii.com%3A1337&amp;tr=udp%3A%2F%2Ftracker.coppersurfer.tk%3A6969&amp;tr=udp%3A%2F%2Fexodus.desync.com%3A6969","seeders":1,"leechers":4,"uploader":"rhythmtheguru","files":15,"time":1356860847,"description":"General\n\nComplete name                    : Frankenweenie[2012]BRrip[Ac3-5.1]-=[CaLvIn]=-\nFormat                           : AVI\nFormat/Info                      : Audio Video Interleave\nFile size                        : 700 MiB\nDuration                         : 1h 26mn\nOverall bit rate                 : 1 125 Kbps\nWriting application              : VirtualDubMod 1.5.10.3 | www.virtualdub-fr.org || (build 2550/release)\nWriting library                  : VirtualDubMod build 2550/release\n\nVideo\n\nID                               : 0\nFormat                           : MPEG-4 Visual\nFormat profile                   : Advanced Simple@L5\nFormat settings, BVOP            : 2\nFormat settings, QPel            : No\nFormat settings, GMC             : No warppoints\nFormat settings, Matrix          : Default (H.263)\nCodec ID                         : XVID\nCodec ID/Hint                    : XviD\nDuration                         : 1h 26mn\nBit rate                         : 860 Kbps\nWidth                            : 720 pixels\nHeight                           : 384 pixels\nDisplay aspect ratio             : 16:9\nFrame rate                       : 23.976 fps\nColor space                      : YUV\nChroma subsampling               : 4:2:0\nBit depth                        : 8 bits\nScan type                        : Progressive\nCompression mode                 : Lossy\nBits/(Pixel*Frame)               : 0.130\nStream size                      : 535 MiB (76%)\nWriting library                  : XviD 1.2.1 (UTC 2008-12-04)\n\nAudio\n\nID                               : 1\nFormat                           : AC-3\nFormat/Info                      : Audio Coding 3\nMode extension                   : CM (complete main)\nCodec ID                         : 2000\nDuration                         : 1h 26mn\nBit rate mode                    : Constant\nBit rate                         : 256 Kbps\nChannel(s)                       : 6 channels\nChannel positions                : Front: L C R, Side: L R, LFE\nSampling rate                    : 48.0 KHz\nBit depth                        : 16 bits\nCompression mode                 : Lossy\nStream size                      : 159 MiB (23%)\nAlignment                        : Split accross interleaves\nInterleave, duration             : 42 ms (1.00 video frame)\nInterleave, preload duration     : 500 ms\n\nScreens\n &lt;a href=&quot;\nhttp://img266.imageshack.us/img266/7534/36894416.png&quot; rel=&quot;nofollow&quot; target=&quot;_NEW&quot;&gt;\nhttp://img266.imageshack.us/img266/7534/36894416.png&lt;/a&gt; &lt;a href=&quot;\nhttp://img834.imageshack.us/img834/715/81097821.png&quot; rel=&quot;nofollow&quot; target=&quot;_NEW&quot;&gt;\nhttp://img834.imageshack.us/img834/715/81097821.png&lt;/a&gt; &lt;a href=&quot;\nhttp://img805.imageshack.us/img805/8468/72987470.png&quot; rel=&quot;nofollow&quot; target=&quot;_NEW&quot;&gt;\nhttp://img805.imageshack.us/img805/8468/72987470.png&lt;/a&gt; &lt;a href=&quot;\nhttp://img195.imageshack.us/img195/9034/54000717.png&quot; rel=&quot;nofollow&quot; target=&quot;_NEW&quot;&gt;\nhttp://img195.imageshack.us/img195/9034/54000717.png&lt;/a&gt; &lt;a href=&quot;\nhttp://img692.imageshack.us/img692/1728/92666955.png&quot; rel=&quot;nofollow&quot; target=&quot;_NEW&quot;&gt;\nhttp://img692.imageshack.us/img692/1728/92666955.png&lt;/a&gt; &lt;a href=&quot;\nhttp://img33.imageshack.us/img33/5682/46373269.png&quot; rel=&quot;nofollow&quot; target=&quot;_NEW&quot;&gt;\nhttp://img33.imageshack.us/img33/5682/46373269.png&lt;/a&gt; &lt;a href=&quot;\nhttp://img217.imageshack.us/img217/8203/61204075.png&quot; rel=&quot;nofollow&quot; target=&quot;_NEW&quot;&gt;\nhttp://img217.imageshack.us/img217/8203/61204075.png&lt;/a&gt; &lt;a href=&quot;\nhttp://img145.imageshack.us/img145/5120/62715488.png&quot; rel=&quot;nofollow&quot; target=&quot;_NEW&quot;&gt;\nhttp://img145.imageshack.us/img145/5120/62715488.png&lt;/a&gt; &lt;a href=&quot;\nhttp://img141.imageshack.us/img141/3931/25291493.png&quot; rel=&quot;nofollow&quot; target=&quot;_NEW&quot;&gt;\nhttp://img141.imageshack.us/img141/3931/25291493.png&lt;/a&gt; &lt;a href=&quot;\nhttp://img189.imageshack.us/img189/7158/19069552.png&quot; rel=&quot;nofollow&quot; target=&quot;_NEW&quot;&gt;\nhttp://img189.imageshack.us/img189/7158/19069552.png&lt;/a&gt;","torrent":{"xt":"urn:btih:46e4d325d1448cc1845f3770b559bc6aa6c7cdae","amp;dn":"Frankenweenie%5B2012%5DBRrip%5BAc3-5.1%5D-%3D%5BCaLvIn%5D%3D-","amp;tr":["udp%3A%2F%2Ftracker.openbittorrent.com%3A80","udp%3A%2F%2Fopen.demonii.com%3A1337","udp%3A%2F%2Ftracker.coppersurfer.tk%3A6969","udp%3A%2F%2Fexodus.desync.com%3A6969"],"infoHash":"46e4d325d1448cc1845f3770b559bc6aa6c7cdae","infoHashBuffer":{"type":"Buffer","data":[70,228,211,37,209,68,140,193,132,95,55,112,181,89,188,106,166,199,205,174]},"announce":[],"urlList":[]}}